<svg xmlns="http://www.w3.org/2000/svg"  viewBox="0 0 100 100" width="400px" height="400px"><path fill="#e3e2e3" d="M20,67.992c-9.925,0-18-8.075-18-18s8.075-18,18-18s18,8.075,18,18S29.925,67.992,20,67.992z M20.085,36.82C12.87,36.82,7,42.69,7,49.906s5.871,13.086,13.086,13.086s13.086-5.87,13.086-13.086S27.301,36.82,20.085,36.82z"/><path fill="#8e9db5" d="M20,64.992c-8.271,0-15-6.729-15-15s6.729-15,15-15s15,6.729,15,15S28.271,64.992,20,64.992z M20,36.992c-7.168,0-13,5.832-13,13s5.832,13,13,13s13-5.832,13-13S27.167,36.992,20,36.992z"/><path fill="#e3e2e3" d="M80,67.992c-9.925,0-18-8.075-18-18s8.075-18,18-18s18,8.075,18,18S89.925,67.992,80,67.992z M80.085,36.82C72.87,36.82,67,42.69,67,49.906s5.871,13.086,13.086,13.086c7.215,0,13.086-5.87,13.086-13.086 S87.301,36.82,80.085,36.82z"/><path fill="#8e9db5" d="M80,64.992c-8.271,0-15-6.729-15-15s6.729-15,15-15s15,6.729,15,15S88.271,64.992,80,64.992z M80,36.992c-7.168,0-13,5.832-13,13s5.832,13,13,13c7.168,0,13-5.832,13-13S87.167,36.992,80,36.992z"/><path fill="#e3e2e3" d="M60,67.992c-9.925,0-18-8.075-18-18s8.075-18,18-18s18,8.075,18,18S69.925,67.992,60,67.992z M60.085,36.82C52.87,36.82,47,42.69,47,49.906s5.871,13.086,13.086,13.086s13.086-5.87,13.086-13.086S67.301,36.82,60.085,36.82z"/><path fill="#8e9db5" d="M60,64.992c-8.271,0-15-6.729-15-15s6.729-15,15-15s15,6.729,15,15S68.271,64.992,60,64.992z M60,36.992c-7.168,0-13,5.832-13,13s5.832,13,13,13c7.168,0,13-5.832,13-13S67.167,36.992,60,36.992z"/><ellipse cx="70" cy="49.992" fill="none" stroke="#1f212b" stroke-linecap="round" stroke-miterlimit="10" rx="2.5" ry="7.5"/><path fill="#e3e2e3" d="M40,67.992c-9.925,0-18-8.075-18-18s8.075-18,18-18s18,8.075,18,18S49.925,67.992,40,67.992z M40.085,36.82C32.87,36.82,27,42.69,27,49.906s5.871,13.086,13.086,13.086s13.086-5.87,13.086-13.086S47.301,36.82,40.085,36.82z"/><path fill="#8e9db5" d="M40,64.992c-8.271,0-15-6.729-15-15s6.729-15,15-15s15,6.729,15,15S48.271,64.992,40,64.992z M40,36.992c-7.168,0-13,5.832-13,13s5.832,13,13,13s13-5.832,13-13S47.167,36.992,40,36.992z"/><path fill="none" stroke="#1f212b" stroke-linecap="round" stroke-linejoin="round" stroke-miterlimit="10" stroke-width="2" d="M80,30.992c-3.671,0-7.091,1.064-10,2.875c-2.909-1.811-6.329-2.875-10-2.875s-7.091,1.064-10,2.875 c-2.909-1.811-6.329-2.875-10-2.875s-7.091,1.064-10,2.875c-2.909-1.811-6.329-2.875-10-2.875c-10.477,0-19,8.523-19,19 c0,10.477,8.523,19,19,19c3.671,0,7.091-1.064,10-2.875c2.909,1.811,6.329,2.875,10,2.875s7.091-1.064,10-2.875 c2.909,1.811,6.329,2.875,10,2.875s7.091-1.064,10-2.875c2.909,1.811,6.329,2.875,10,2.875c10.477,0,19-8.523,19-19 C99,39.515,90.476,30.992,80,30.992z"/><ellipse cx="50" cy="49.992" fill="none" stroke="#1f212b" stroke-linecap="round" stroke-miterlimit="10" rx="2.5" ry="7.5"/><ellipse cx="30" cy="49.992" fill="none" stroke="#1f212b" stroke-linecap="round" stroke-miterlimit="10" rx="2.5" ry="7.5"/><path fill="none" stroke="#1f212b" stroke-linecap="round" stroke-miterlimit="10" d="M21.5,49.992 c0-4.251,1.449-8.156,3.86-11.28c-1.626-0.774-3.439-1.22-5.36-1.22c-6.904,0-12.5,5.596-12.5,12.5s5.596,12.5,12.5,12.5 c1.921,0,3.733-0.446,5.36-1.22C22.949,58.147,21.5,54.243,21.5,49.992z"/><path fill="none" stroke="#1f212b" stroke-linecap="round" stroke-miterlimit="10" d="M80,37.492c-1.921,0-3.733,0.446-5.36,1.22 c2.411,3.124,3.86,7.028,3.86,11.28c0,4.251-1.449,8.156-3.86,11.28c1.626,0.774,3.439,1.22,5.36,1.22 c6.904,0,12.5-5.596,12.5-12.5S86.903,37.492,80,37.492z"/><path fill="none" stroke="#1f212b" stroke-linecap="round" stroke-miterlimit="10" d="M41.5,49.992 c0-4.251,1.449-8.156,3.86-11.28c-1.626-0.774-3.439-1.22-5.36-1.22s-3.733,0.446-5.36,1.22c2.411,3.124,3.86,7.028,3.86,11.28 c0,4.251-1.449,8.156-3.86,11.28c1.626,0.774,3.439,1.22,5.36,1.22s3.733-0.446,5.36-1.22C42.949,58.147,41.5,54.243,41.5,49.992z"/><path fill="none" stroke="#1f212b" stroke-linecap="round" stroke-miterlimit="10" d="M61.5,49.992 c0-4.251,1.449-8.156,3.86-11.28c-1.626-0.774-3.439-1.22-5.36-1.22s-3.733,0.446-5.36,1.22c2.411,3.124,3.86,7.028,3.86,11.28 c0,4.251-1.449,8.156-3.86,11.28c1.626,0.774,3.439,1.22,5.36,1.22s3.733-0.446,5.36-1.22C62.949,58.147,61.5,54.243,61.5,49.992z"/><path fill="none" stroke="#1f212b" stroke-linecap="round" stroke-miterlimit="10" d="M94.311,44.048 c2.314,5.568,1.127,11.732-2.543,16.031 M85.323,35.447c2.243,0.822,4.295,2.157,5.963,3.926 M74.05,35.682 c2.142-0.89,4.373-1.262,6.551-1.174"/></svg>